# xmcd
#
# Track frame offsets:
#	150
#	15459
#	31202
#	44262
#	62474
#	77767
#	91731
#	105662
#	122473
#	137806
#	152744
#	167446
#	184301
#	200715
#
# Disc length: 2854 seconds
#
# Revision: 0
# Processed by: cddbd v1.5.2PL0 Copyright (c) Steve Scherf et al.
# Submitted via: dBpowerAMP V4.0
#
DISCID=a90b240e
DTITLE=Stephanie Thomson - Modern Day Attraction
DYEAR=2004
DGENRE=Country
TTITLE0=What Do I Gotta Do
TTITLE1=What Do I Gotta Do (Pop version)
TTITLE2=Modern Day
TTITLE3=Catch Me If You Can
TTITLE4=Cowboys R Kool
TTITLE5=Finally More Than Friends
TTITLE6=Finally More Than Friends (Pop Version)
TTITLE7=Girls` Nite Out
TTITLE8=Good In Goodbye
TTITLE9=Memphis Rain
TTITLE10=When I'm Dreaming
TTITLE11=Romeo
TTITLE12=The Way You Are
TTITLE13=Those Memories of You
EXTD=
EXTT0=
EXTT1=
EXTT2=
EXTT3=
EXTT4=
EXTT5=
EXTT6=
EXTT7=
EXTT8=
EXTT9=
EXTT10=
EXTT11=
EXTT12=
EXTT13=
PLAYORDER=
